<svg width="172" height="41" viewBox="0 0 172 41" fill="none" xmlns="http://www.w3.org/2000/svg">
<path d="M48.4717 21.5455C48.4717 18.2379 47.3547 15.4928 45.081 13.3023C42.8033 11.1118 40.0147 9.99475 36.6675 9.99475C33.2768 9.99475 30.4841 11.1118 28.2104 13.3023C25.9764 15.4928 24.8633 18.1983 24.8633 21.4583C24.8633 24.7223 25.9803 27.4674 28.2104 29.6579C30.4841 31.8484 33.2768 32.9219 36.6675 32.9219C39.373 32.9219 41.7338 32.2366 43.75 30.8185C45.8098 29.4004 47.2279 27.5545 48.0439 25.2808H41.3892C40.6603 26.5246 38.858 27.4713 36.7943 27.4713C34.2195 27.4713 32.2429 25.9265 31.5576 23.4785H48.3014C48.4321 23.0071 48.4717 22.3615 48.4717 21.5455ZM36.6635 15.4057C39.068 15.4057 41.0842 16.907 41.7298 19.3114H31.5972C32.3261 16.907 34.2156 15.4057 36.6635 15.4057ZM64.958 9.99475C62.2961 9.99475 60.1056 10.9811 58.3469 12.9577V10.5097H52.0803V40.5629H58.3469V29.9589C60.1056 31.9355 62.2961 32.9219 64.958 32.9219C68.0081 32.9219 70.4957 31.8484 72.5159 29.6579C74.5361 27.4674 75.5224 24.7223 75.5224 21.4583C75.5224 18.1943 74.5361 15.4889 72.5159 13.3023C70.4997 11.1118 68.0081 9.99475 64.958 9.99475ZM59.8481 25.3204C58.8618 24.2905 58.3469 23.0032 58.3469 21.4583C58.3469 19.9135 58.8618 18.6261 59.8481 17.5962C60.878 16.5663 62.1654 16.0513 63.7103 16.0513C65.2551 16.0513 66.5425 16.5663 67.5328 17.5962C68.5627 18.6261 69.0776 19.9135 69.0776 21.4583C69.0776 23.0032 68.5627 24.2905 67.5328 25.3204C66.5464 26.3503 65.2551 26.8653 63.7103 26.8653C62.1654 26.8653 60.878 26.3503 59.8481 25.3204ZM98.2317 29.6579C100.505 27.4674 101.622 24.7223 101.622 21.4583C101.622 18.1943 100.505 15.4889 98.2317 13.3023C95.9976 11.1118 93.2089 9.99475 89.8182 9.99475C86.4274 9.99475 83.6348 11.1118 81.3611 13.3023C79.127 15.4928 78.014 18.1983 78.014 21.4583C78.014 24.7223 79.131 27.4674 81.3611 29.6579C83.6348 31.8484 86.4274 32.9219 89.8182 32.9219C93.2089 32.9219 96.0015 31.8484 98.2317 29.6579ZM85.9521 25.3204C84.9658 24.2905 84.4508 23.0032 84.4508 21.4583C84.4508 19.9135 84.9658 18.6261 85.9521 17.5962C86.982 16.5663 88.2694 16.0513 89.8142 16.0513C91.3591 16.0513 92.6464 16.5663 93.6367 17.5962C94.6666 18.6261 95.1816 19.9135 95.1816 21.4583C95.1816 23.0032 94.6666 24.2905 93.6367 25.3204C92.6504 26.3503 91.363 26.8653 89.8142 26.8653C88.2694 26.8653 86.982 26.3503 85.9521 25.3204ZM111.585 10.5097H105.318V32.4069H111.585V22.1872C111.585 18.7529 113.775 16.6059 117.681 16.6059V10.1651C115.32 10.1651 113.26 11.2386 111.585 13.4291V10.5097ZM135.114 10.5097H129.917V4.06888H123.65V10.5097H119.828V16.2217H123.65V32.4069H135.114V26.695H129.917V16.2177H135.114V10.5057V10.5097ZM142.07 7.71709C144.304 7.71709 145.975 6.0851 145.975 3.85498C145.975 1.66446 144.3 0.0324707 142.07 0.0324707C139.879 0.0324707 138.208 1.66446 138.208 3.85498C138.208 6.08906 139.883 7.71709 142.07 7.71709ZM145.203 32.403V10.5057H138.936V32.403H145.203ZM164.05 21.4108L171.608 10.5057H164.094L159.887 16.9901L155.68 10.5057H148.083L155.641 21.4108L147.956 32.403H155.47L159.808 25.7918L164.145 32.403H171.747L164.062 21.4108H164.05Z" fill="#2F7AEA"/>
<path d="M20.3433 29.6544C18.8381 26.9093 17.5586 24.5801 16.0534 21.8351C19.3174 20.2902 21.3771 17.1134 21.3771 13.3344C21.3771 10.5022 20.3908 8.1374 18.4142 6.2519C16.4812 4.36243 14.0332 3.41968 11.0742 3.41968H0.470215V22.9125C3.36185 22.9125 6.25349 22.9125 9.14117 22.9125C10.8286 26.2913 12.2942 29.2503 13.9817 32.6252C16.1009 31.6349 18.2241 30.6486 20.3433 29.6583V29.6544ZM10.9435 9.68225C13.0033 9.68225 14.5481 11.3142 14.5481 13.4176C14.5481 15.521 13.0033 17.1094 10.9435 17.1094H7.12098V9.68225H10.9435Z" fill="#2F7AEA"/>
<path d="M3.79138 32.6213C5.75154 32.6213 7.34056 31.0323 7.34056 29.0721C7.34056 27.112 5.75154 25.5229 3.79138 25.5229C1.83121 25.5229 0.242188 27.112 0.242188 29.0721C0.242188 31.0323 1.83121 32.6213 3.79138 32.6213Z" fill="#2F7AEA"/>
</svg>
